# xmcd CD database file
#
# Track frame offsets:
#	150
#	14295
#	32840
#	48090
#	65552
#	81755
#	94320
#	107585
#	124490
#	137770
#	153050
#	169975
#
# Disc length: 2457 seconds
#
# Revision: 1
# Processed by: cddbd v1.5.1PL2 Copyright (c) Steve Scherf et al.
# Submitted via: CDex 1.51
#
DISCID=9a09970c
DTITLE=Warratahs - too hot to sleep
DYEAR=1989
DGENRE=Country
TTITLE0=Why should we try anymore
TTITLE1=St. Peter's rendezvous
TTITLE2=My friends say fool
TTITLE3=Nothing ever happened round here
TTITLE4=Thanks a lot
TTITLE5=Ringing of the bell
TTITLE6=Can I forget you (Time will tell)
TTITLE7=Taranaki
TTITLE8=Forgot to take my heart
TTITLE9=Bruno's last ride
TTITLE10=Maureen
TTITLE11=Hands of my heart
EXTD=YEAR: 1989
EXTT0=
EXTT1=
EXTT2=
EXTT3=
EXTT4=
EXTT5=
EXTT6=
EXTT7=
EXTT8=
EXTT9=
EXTT10=
EXTT11=
PLAYORDER=
